<svg id="Layer_1" data-name="Layer 1" xmlns="http://www.w3.org/2000/svg" viewBox="0 0 169.2 237.2"><defs><style>.cls-1{fill:#dd9954;}.cls-2{fill:#f9f9f9;}.cls-3{fill:#6d6d6d;}.cls-4{fill:#00adee;}.cls-5{fill:#e22d2d;}.cls-6{fill:#5d9632;}</style></defs><title>Assessment</title><path class="cls-1" d="M206.3,243.6H43.7a3.33,3.33,0,0,1-3.3-3.3V27.9a3.33,3.33,0,0,1,3.3-3.3H206.3a3.33,3.33,0,0,1,3.3,3.3V240.2A3.35,3.35,0,0,1,206.3,243.6Z" transform="translate(-40.4 -6.4)"/><rect class="cls-2" x="11.6" y="33.2" width="146.1" height="189"/><path class="cls-3" d="M167.2,20H144.4c0-7.5-8.7-13.6-19.4-13.6S105.6,12.5,105.6,20H82.8a3.33,3.33,0,0,0-3.3,3.3V41.9h91V23.3A3.33,3.33,0,0,0,167.2,20Zm-42.2.6a4.7,4.7,0,1,1,4.7-4.7A4.69,4.69,0,0,1,125,20.6Z" transform="translate(-40.4 -6.4)"/><path class="cls-4" d="M187.5,71.2H93.1A3.12,3.12,0,0,1,90,68.1h0A3.12,3.12,0,0,1,93.1,65h94.5a3.12,3.12,0,0,1,3.1,3.1h0A3.14,3.14,0,0,1,187.5,71.2Z" transform="translate(-40.4 -6.4)"/><path class="cls-4" d="M79.6,79.3H57.3V57H79.6ZM59.5,77H77.3V59.2H59.5Z" transform="translate(-40.4 -6.4)"/><path class="cls-5" d="M83.6,63.7,72.8,74.5l-2,2a1.45,1.45,0,0,1-2,0l-2-2-5.4-5.4a1.45,1.45,0,0,1,0-2l2-2a1.45,1.45,0,0,1,2,0l4.4,4.4,9.8-9.8a1.45,1.45,0,0,1,2,0l2,2a1.28,1.28,0,0,1,.4,1A1.16,1.16,0,0,1,83.6,63.7Z" transform="translate(-40.4 -6.4)"/><path class="cls-4" d="M187.5,104.9H93.1a3.12,3.12,0,0,1-3.1-3.1h0a3.12,3.12,0,0,1,3.1-3.1h94.5a3.12,3.12,0,0,1,3.1,3.1h0A3.14,3.14,0,0,1,187.5,104.9Z" transform="translate(-40.4 -6.4)"/><path class="cls-4" d="M79.6,112.9H57.3V90.6H79.6Zm-20.1-2.2H77.3V92.9H59.5Z" transform="translate(-40.4 -6.4)"/><path class="cls-5" d="M83.6,97.4,72.8,108.2l-2,2a1.45,1.45,0,0,1-2,0l-2-2-5.4-5.4a1.45,1.45,0,0,1,0-2l2-2a1.45,1.45,0,0,1,2,0l4.4,4.4,9.8-9.8a1.45,1.45,0,0,1,2,0l2,2a1.28,1.28,0,0,1,.4,1A1,1,0,0,1,83.6,97.4Z" transform="translate(-40.4 -6.4)"/><path class="cls-4" d="M187.5,138.5H93.1a3.12,3.12,0,0,1-3.1-3.1h0a3.12,3.12,0,0,1,3.1-3.1h94.5a3.12,3.12,0,0,1,3.1,3.1h0A3.14,3.14,0,0,1,187.5,138.5Z" transform="translate(-40.4 -6.4)"/><path class="cls-4" d="M79.6,146.6H57.3V124.3H79.6Zm-20.1-2.3H77.3V126.5H59.5Z" transform="translate(-40.4 -6.4)"/><path class="cls-5" d="M83.6,131,72.8,141.8l-2,2a1.45,1.45,0,0,1-2,0l-2-2-5.4-5.4a1.45,1.45,0,0,1,0-2l2-2a1.45,1.45,0,0,1,2,0l4.4,4.4,9.8-9.8a1.45,1.45,0,0,1,2,0l2,2a1.28,1.28,0,0,1,.4,1A1.16,1.16,0,0,1,83.6,131Z" transform="translate(-40.4 -6.4)"/><path class="cls-6" d="M58.5,204.5a1.42,1.42,0,0,1-.6-.2,1.28,1.28,0,0,1-.5-1.7l13-24L81.2,193l28.9-27.7,19.4,26.8,21.2-27.9,15,20.3L180,173.4l10.4,22.2a1.32,1.32,0,0,1-.6,1.7,1.2,1.2,0,0,1-1.6-.6l-9.1-19.4-13.9,10.8-14.6-19.7-21.3,27.9-19.7-27.1L81,196.8,70.8,183.2,59.6,203.8A1.08,1.08,0,0,1,58.5,204.5Z" transform="translate(-40.4 -6.4)"/></svg>