<?xml version="1.0" encoding="utf-8"?>
<!-- Generator: Adobe Illustrator 21.0.2, SVG Export Plug-In . SVG Version: 6.00 Build 0)  -->
<svg version="1.1" id="Layer_1" xmlns="http://www.w3.org/2000/svg" xmlns:xlink="http://www.w3.org/1999/xlink" x="0px" y="0px"
	 viewBox="0 0 250 250" style="enable-background:new 0 0 250 250;" xml:space="preserve">
<style type="text/css">
	.st0{fill:#00ADEE;}
	.st1{fill:#E4E7EF;}
	.st2{fill:#F4F4F5;}
	.st3{fill:#EA7200;}
	.st4{fill:none;stroke:#E4E7EF;stroke-linecap:round;stroke-miterlimit:10;}
	.st5{fill:#6D6D6D;}
	.st6{fill:#DD9954;}
	.st7{fill:#C0EDFF;}
</style>
<g>
	<g>
		<path class="st0" d="M202.2,51.2H11.9c-2.7,0-4.8,2.1-4.8,4.8v142.7c0,2.7,2.1,4.8,4.8,4.8h67.9c4.5,0,9,2,11.5,5.8
			c3.4,5.1,9.2,8.5,15.7,8.5c6.5,0,12.4-3.4,15.7-8.5c2.6-3.8,6.9-5.8,11.5-5.8h67.9c2.7,0,4.8-2.1,4.8-4.8V56
			C207,53.4,204.9,51.2,202.2,51.2z"/>
		<path class="st1" d="M21.4,103.6v85.6h76.1c5.2,0,9.5,4.3,9.5,9.5c0-5.2,4.3-9.5,9.5-9.5h76.2v-85.6H21.4z"/>
		<path class="st2" d="M121.3,32.2c-7.9,0-14.3,6.4-14.3,14.3c0-7.9-6.4-14.3-14.3-14.3H21.4v147.5h76.1c5.2,0,9.5,4.3,9.5,9.5
			c0-5.2,4.3-9.5,9.5-9.5h76.2V32.2H121.3z"/>
		<rect x="40.4" y="46.5" class="st3" width="19" height="33.3"/>
		<line class="st4" x1="40.4" y1="94.1" x2="92.8" y2="94.1"/>
		<line class="st4" x1="71.9" y1="79.8" x2="92.8" y2="79.8"/>
		<line class="st4" x1="71.9" y1="65.5" x2="92.8" y2="65.5"/>
		<line class="st4" x1="71.9" y1="51.2" x2="92.8" y2="51.2"/>
		<line class="st4" x1="40.4" y1="108.3" x2="92.8" y2="108.3"/>
		<line class="st4" x1="40.4" y1="122.6" x2="92.8" y2="122.6"/>
		<line class="st4" x1="40.4" y1="136.9" x2="92.8" y2="136.9"/>
		<line class="st4" x1="40.4" y1="151.2" x2="92.8" y2="151.2"/>
		<line class="st4" x1="40.4" y1="165.4" x2="92.8" y2="165.4"/>
		<line class="st4" x1="121.3" y1="94.1" x2="173.7" y2="94.1"/>
		<line class="st4" x1="121.3" y1="108.3" x2="173.7" y2="108.3"/>
		<line class="st4" x1="121.3" y1="65.5" x2="173.7" y2="65.5"/>
		<line class="st4" x1="121.3" y1="51.2" x2="173.7" y2="51.2"/>
		<line class="st4" x1="121.3" y1="79.8" x2="173.7" y2="79.8"/>
		<line class="st4" x1="121.3" y1="122.6" x2="173.7" y2="122.6"/>
		<line class="st4" x1="121.3" y1="136.9" x2="173.7" y2="136.9"/>
		<line class="st4" x1="121.3" y1="151.2" x2="173.7" y2="151.2"/>
		<line class="st4" x1="121.3" y1="165.4" x2="173.7" y2="165.4"/>
	</g>
	<g>
		<path class="st3" d="M181.4,93.1c-1.2,2.1-3.1,2.9-5.4,3c-1.8,0-3.5-0.1-5.2,1.4c-2,1.8-4.9,1.3-7.5,0.8c-0.7-0.1-1.4-0.4-2-0.6
			c-1.2-0.4-2.3-1-3.7-0.1c-0.6,0.4-1.8,0.1-2.7-0.1c-1.3-0.4-2.6-1-3.8-1.7c-1.2-0.7-2.2-1-3.8-0.7c-2.9,0.6-5.4-0.5-7.7-2.5
			c-0.5-0.5-1-0.9-1.5-1.4c-0.2,0-0.4,0.1-0.6,0.1c0,4.3,0,8.7,0,13c0,2.9-0.1,5.8-0.1,8.7c0,1.5-0.4,2.5-2.1,2.7
			c-0.9,0.1-1.8,0.4-2.9,0.6c-0.2-8.3-0.4-16.4-0.6-24.3c-2.2,1.1-4.4,2.2-6.5,3.2c-0.8,0.3-1.9,0.4-2.7,0.1c-1.5-0.7-2.6,0-3.8,0.7
			c-1.5,0.8-3.6,2.2-4.9,1.8c-3.2-0.9-5.8,0.7-8.7,0.9c-2.8,0.2-5.4,0.2-7.5-2.2c-0.2-0.2-0.7-0.3-1.1-0.3c-0.9,0-1.8,0-2.8,0
			c-2.3-0.1-4.3-0.8-5.4-3c0-0.6,0-1.2,0-1.8c2.8-2,5.5-4,8.3-6c3.7-2.8,7.1-5.7,11-8.2c2.9-1.8,6.2-3,9.7-3c3.4,0,5.4,1.4,6.5,4.7
			c0.4,1.2,0.8,2.6,1.3,3.7c0.4,0.8,0.9,1.9,1.5,2.1c1.3,0.3,2.8,0.2,4.1,0.1c0.2,0,0.6-1.3,0.4-1.9c-0.1-0.6-0.8-1.1-1.3-1.5
			c-2.5-1.8-3.7-5.2-2.8-8.3c0.8-3,3.5-5.2,6.4-5.5c3.3-0.3,6.2,1.1,7.8,4c1.9,3.6,1,7.8-2.5,10c-1.1,0.8-1.1,1.7-0.9,2.7
			c0.1,0.4,1,0.9,1.6,1c2,0.6,3.4,0,4.3-1.9c0.7-1.4,1.1-3,1.6-4.4c1.1-3.2,3.1-4.6,6.3-4.6c1.6,0,3.3,0.3,4.8,0.7
			c5.8,1.7,10.4,5.4,14.9,9.3c3,2.6,6.3,4.8,9.5,7.3C181.4,91.9,181.4,92.5,181.4,93.1z M133.4,69.9c-1.8,0-3.5,1.6-3.5,3.5
			c0,1.8,1.7,3.5,3.6,3.4c1.8,0,3.3-1.5,3.3-3.4C136.8,71.4,135.3,69.9,133.4,69.9z"/>
		<path class="st3" d="M148.9,98.9c4.1,0.2,8.2,0.3,12.3,0.7c6.3,0.7,9.2,7.1,5.5,12.4c-3.4,4.8-8.3,7.5-13.7,8.9
			c-5.5,1.4-11.2,2.1-16.9,3.5c-2.6,0.6-5.2,1.5-7.6,3c-3.7,2.2-3.7,6.2-0.2,8.6c3.1,2,6.5,3.7,9.7,5.5c1.6,1,3.4,2,4.7,3.4
			c2.6,2.7,2.7,6.1,0.4,9.1c-1.7,2.3-4,3.8-6.9,4.1c-0.6,0.1-1.2-0.4-1.9-0.6c0.2-0.7,0.3-1.5,0.8-2c0.5-0.6,1.3-0.9,2-1.4
			c1.3-0.9,2.9-1.7,2.7-3.8c-0.2-1.9-1.7-2.7-3.3-3.3c-3.2-1.4-6.3-2.8-9.4-4.3c-1.7-0.9-3.4-1.9-4.8-3.2c-4.7-4-4.9-9.8-0.6-14.3
			c3.2-3.4,7.4-5.1,11.7-6.1c5.5-1.3,11.1-2.3,16.6-3.7c3.4-0.8,6.6-1.9,9.3-4.3c1.8-1.6,2.6-3.2,1.9-4.5c-0.7-1.4-2.5-1.9-4.8-1.3
			c-2.2,0.6-4.4,1.6-6.7,2.1c-1.7,0.3-3.6,0.2-5.3-0.2c-1.5-0.3-2.6-1.6-2.7-3.4c0-1.8,0.7-3.4,2.5-4.1c1.3-0.5,2.9-0.7,4.3-1
			C148.8,98.7,148.9,98.8,148.9,98.9z"/>
		<path class="st3" d="M128.7,117.2c-2.5,1.5-4.8,3-7.1,4.4c-0.3,0.2-0.8,0.3-1.1,0.2c-6.4-1.4-12.4-3.8-16.6-9.1
			c-2.1-2.6-2.8-5.5-1.6-8.6c1.2-3.2,3.8-4.4,6.9-4.6c4.3-0.3,8.7-0.5,13-0.6c2.1-0.1,4.1,0.6,5.2,2.7c1.1,2,0.5,4.1-1.5,5.3
			c-1.8,1-3.8,1.2-5.7,0.5c-2.1-0.7-4.2-1.4-6.3-2.1c-2.7-0.8-4.5-0.4-5.2,1c-0.7,1.3,0,3.2,2.1,4.9c3.5,2.8,7.7,3.8,11.8,4.7
			C124.4,116.4,126.5,116.8,128.7,117.2z"/>
		<path class="st3" d="M144.1,141.7c-2-1.2-3.9-2.3-5.5-3.4c1.7-1.8,3.9-3.4,4.9-5.4c1.2-2.7-0.8-4.7-3.4-6.4c2.7-0.5,5-0.9,7.4-1.2
			c0.3,0,0.8,0.4,1.1,0.8c3.4,4.1,3,9.3-0.8,12.9C146.5,139.9,145.2,140.8,144.1,141.7z"/>
		<path class="st3" d="M131.3,157.3c-5.5-1.4-8.2-7.6-4.8-12.1c1.5,0.7,3.1,1.4,4.7,2.2c-2.2,3-2,3.9,1.1,6.4
			C132,155.1,131.7,156.1,131.3,157.3z"/>
		<path class="st3" d="M136.8,127.1c0,3.5,0,6.7,0,10.4c-1.4-0.7-2.6-1.2-3.6-1.8c-0.3-0.2-0.4-0.8-0.5-1.2
			c-0.1-1.4,0.1-2.8-0.1-4.2c-0.2-1.8,0.4-2.8,2.2-2.9C135.6,127.4,136.2,127.2,136.8,127.1z"/>
		<path class="st3" d="M133.3,148.1c1.3,0.9,2.2,1.5,3.3,2.1c-0.8,0.9-1.7,1.9-2.6,2.9c-0.1-0.1-0.3-0.2-0.4-0.3
			c-0.1-0.6-0.2-1.3-0.2-1.9C133.2,150.2,133.3,149.5,133.3,148.1z"/>
	</g>
	<g>
		<path class="st5" d="M229.1,215.6c-3.7,0-7.1-1.5-9.6-4.1L182.7,175c-12.6,8.7-27.5,13.3-42.7,13.3c-41.7,0-75.4-33.7-75.4-75.4
			S98.3,37.5,140,37.5s75.4,33.7,75.4,75.4c0,15.2-4.6,30.2-13.3,42.7l36.8,36.8c2.5,2.5,4,6,4,9.6
			C242.7,209.5,236.5,215.6,229.1,215.6z M140,65c-26.4,0-48,21.5-48,48s21.5,48,48,48s48-21.5,48-48S166.5,65,140,65z"/>
	</g>
	<g>
		<path class="st6" d="M202.1,155.6l36.8,36.8c2.5,2.5,4,6,4,9.6c0,7.5-6.2,13.7-13.7,13.7c-3.7,0-7.1-1.5-9.6-4.1L182.8,175
			L202.1,155.6z"/>
	</g>
	<g>
		<path class="st7" d="M175.4,110.9c1.5-0.1,2.9,0.9,3,2.5c1.6,16.2-10.3,30.7-26.6,32.4c-1.5,0.1-2.9-0.9-3-2.5s0.9-2.9,2.5-3
			c13.3-1.3,23-13.2,21.8-26.4C172.9,112.4,174,111.1,175.4,110.9z"/>
	</g>
</g>
</svg>
