<?xml version="1.0" encoding="utf-8"?>
<!-- Generator: Adobe Illustrator 21.0.2, SVG Export Plug-In . SVG Version: 6.00 Build 0)  -->
<svg version="1.1" id="Layer_1" xmlns="http://www.w3.org/2000/svg" xmlns:xlink="http://www.w3.org/1999/xlink" x="0px" y="0px"
	 viewBox="0 0 250 250" style="enable-background:new 0 0 250 250;" xml:space="preserve">
<style type="text/css">
	.st0{fill:#00ADEE;}
	.st1{fill:#EA7200;}
	.st2{fill:#FFFFFF;}
</style>
<g>
	<g>
		<circle class="st0" cx="84.5" cy="29.8" r="26.3"/>
		<circle class="st1" cx="162.9" cy="29.8" r="26.3"/>
		<path class="st1" d="M124.6,199.7h11l2.7,37.3c0.4,5.3,4.8,9.4,10.2,9.4h30.4c5.3,0,9.7-4.1,10.2-9.4l2.7-37.3h27l-8.3-44.9l0,0
			l6-68c0.9-10.4-6.2-19.8-16.3-21.7l-12.5-2.5c-16.3-3.2-33-3.2-49.3,0l-12.5,2.5c-0.7,0.2-1.4,0.4-1.9,0.5"/>
		<path class="st0" d="M123.9,65.6c-0.7-0.2-1.2-0.4-1.9-0.5l-12.5-2.5c-16.3-3.2-33-3.2-49.3,0l-12.5,2.5
			c-10.2,2.1-17.1,11.5-16.3,21.7l4.6,52c0.9,9.2,8.5,16.1,17.7,16.1l0,0l6,82.2c0.4,5.3,4.8,9.4,10.2,9.4h30.4
			c5.3,0,9.7-4.1,10.2-9.4l2.7-37.3h11.5"/>
	</g>
	<g>
		<circle class="st2" cx="124.6" cy="101" r="17.7"/>
		<path class="st2" d="M108,123.1l-8.5,1.8c-6.9,1.4-11.5,7.6-11,14.7l3,34.8c0.5,6.2,5.7,10.8,11.8,10.8l0,0l4.1,55.1
			c0.2,3.5,3.2,6.4,6.9,6.4h20.3c3.5,0,6.5-2.8,6.9-6.4l4.1-55.1l0,0c6.2,0,11.3-4.8,11.8-10.8l3-34.8c0.5-6.9-4.1-13.3-11-14.7
			l-8.5-1.8C130.3,120.8,118.9,120.8,108,123.1z"/>
	</g>
</g>
</svg>
