<svg id="Layer_1" data-name="Layer 1" xmlns="http://www.w3.org/2000/svg" viewBox="0 0 696.94 996"><defs><style>.cls-1{fill:#937032;}.cls-1,.cls-2{fill-rule:evenodd;}.cls-2{fill:#5d9632;}.cls-3{fill:#fcba30;}</style></defs><title>Flourish</title><path class="cls-1" d="M919,983c-30.83-52.59-114.25-67.1-114.25-67.1C663.29,903.19,656.94,864,656.94,864V624.52L854.73,461.35,834,436.26l-177.1,146.1V336.3H553.58V632.88L416.88,564.79,406,586.66l147.59,73.52V864s-6.35,39.17-147.8,51.87c0,0-83.42,14.51-114.25,67.1,0,0,72.54-43.52,148.7-43.52s105.18-16,105.18-16-40.62,23-29.74,86.5c0,0,48.78-100.1,89.59-75.62,40.8-24.48,89.59,75.62,89.59,75.62,10.88-63.47-29.74-86.5-29.74-86.5s29,16,105.18,16S919,983,919,983Z" transform="translate(-291.53 -14)"/><path class="cls-2" d="M802.93,108.59c-3,0-5.94.13-8.88.33a132.21,132.21,0,0,0-90.69-51.43A132.35,132.35,0,0,0,504,61.13a132.57,132.57,0,0,0-76.4,55.1c-1.23,0-2.46-.09-3.7-.09A132.38,132.38,0,1,0,481,368a132.43,132.43,0,0,0,132.38-10.56,132.29,132.29,0,0,0,140.24,6.43,132.38,132.38,0,1,0,49.27-255.26Z" transform="translate(-291.53 -14)"/><path class="cls-2" d="M981.78,410.14a67.83,67.83,0,0,0-90.5-31.82c-1.38.66-2.72,1.38-4,2.12a67.82,67.82,0,0,0-83.93,102.69,67.82,67.82,0,0,0,121.76,24,67.83,67.83,0,0,0,56.69-97Z" transform="translate(-291.53 -14)"/><path class="cls-2" d="M450.13,513.71a50.68,50.68,0,0,0-23.33-11.18,50.95,50.95,0,1,0-78.08,62.55c.89.75,1.82,1.42,2.74,2.1a50.88,50.88,0,0,0,96,26.22,50.82,50.82,0,0,0,2.63-79.68Z" transform="translate(-291.53 -14)"/><circle class="cls-3" cx="114.25" cy="606.93" r="33.66"/><circle class="cls-3" cx="583.46" cy="494.76" r="20.68"/><circle class="cls-3" cx="103.37" cy="305.81" r="41.05"/><circle class="cls-3" cx="524.6" cy="203.78" r="28.73"/><circle class="cls-3" cx="364.03" cy="315.26" r="16.83"/></svg>