<?xml version="1.0" encoding="utf-8"?>
<!-- Generator: Adobe Illustrator 21.0.2, SVG Export Plug-In . SVG Version: 6.00 Build 0)  -->
<svg version="1.1" id="Layer_1" xmlns="http://www.w3.org/2000/svg" xmlns:xlink="http://www.w3.org/1999/xlink" x="0px" y="0px"
	 viewBox="0 0 250 250" style="enable-background:new 0 0 250 250;" xml:space="preserve">
<style type="text/css">
	.st0{fill:#C0EDFF;}
	.st1{fill:#FFFFFF;}
	.st2{fill:#BA750F;}
</style>
<g>
	<path class="st0" d="M55.7,172.8c-26.4,0-47.8-21.5-47.8-47.8s21.5-47.8,47.8-47.8s47.8,21.5,47.8,47.8S82.1,172.8,55.7,172.8z"/>
	<g>
		<path class="st1" d="M19.2,128.7c-2,0-3.7-1.7-3.7-3.7c0-22.1,18-40.1,40.1-40.1c2,0,3.7,1.7,3.7,3.7s-1.7,3.7-3.7,3.7
			c-18,0-32.8,14.7-32.8,32.8C22.9,127,21.3,128.7,19.2,128.7z"/>
	</g>
	<path class="st0" d="M194.3,172.8c-26.4,0-47.8-21.5-47.8-47.8s21.5-47.8,47.8-47.8s47.8,21.5,47.8,47.8S220.7,172.8,194.3,172.8z"
		/>
	<path class="st2" d="M194.3,71.9c-23.9,0-44.2,15.9-50.8,37.7c-5.8-2.6-12.3-4-19.1-4c-6.4,0-12.5,1.2-18,3.6
		c-6.7-21.6-26.9-37.3-50.7-37.3C26.4,71.9,2.6,95.7,2.6,125s23.8,53.1,53.1,53.1s53.1-23.8,53.1-53.1c0-1.8-0.1-3.6-0.2-5.3
		c4.8-2.3,10.2-3.6,15.9-3.6c6.1,0,12,1.5,17.1,4.1c-0.1,1.6-0.2,3.1-0.2,4.8c0,29.3,23.8,53.1,53.1,53.1s53.1-23.8,53.1-53.1
		S223.6,71.9,194.3,71.9z M55.7,167.6c-23.6,0-42.6-19.1-42.6-42.6s19.1-42.6,42.6-42.6s42.6,19.1,42.6,42.6S79.2,167.6,55.7,167.6z
		 M194.3,167.6c-23.6,0-42.6-19.1-42.6-42.6s19.1-42.6,42.6-42.6s42.6,19.1,42.6,42.6S217.9,167.6,194.3,167.6z"/>
</g>
</svg>
