<?xml version="1.0" encoding="utf-8"?>
<!-- Generator: Adobe Illustrator 21.0.2, SVG Export Plug-In . SVG Version: 6.00 Build 0)  -->
<svg version="1.1" id="Layer_1" xmlns="http://www.w3.org/2000/svg" xmlns:xlink="http://www.w3.org/1999/xlink" x="0px" y="0px"
	 viewBox="0 0 250 250" style="enable-background:new 0 0 250 250;" xml:space="preserve">
<style type="text/css">
	.st0{fill:#EA7200;}
	.st1{fill:#FFFFFF;}
	.st2{fill:#303030;}
	.st3{fill:#6D6D6D;}
	.st4{fill:#5D9632;}
	.st5{fill:#F3F3F4;}
</style>
<g>
	<path class="st0" d="M178.1,44.2v-21h13.4v21c0,3.7-3,6.7-6.7,6.7C181.1,50.9,178.1,47.9,178.1,44.2z"/>
	<path class="st0" d="M58.5,44.2v-21h13.4v21c0,3.7-3,6.7-6.7,6.7C61.5,50.9,58.5,47.9,58.5,44.2z"/>
	<path class="st0" d="M234.1,39.9v184.9c0,9.2-7.5,16.7-16.7,16.7H32.5c-9.2,0-16.7-7.5-16.7-16.7V39.9c0-9.2,7.5-16.7,16.7-16.7
		h20.4v21c0,6.8,5.5,12.3,12.3,12.3S77.5,51,77.5,44.2v-21h95v21c0,6.8,5.5,12.3,12.3,12.3c6.8,0,12.3-5.5,12.3-12.3v-21h20.4
		C226.6,23.2,234.1,30.7,234.1,39.9z"/>
	<path class="st1" d="M222.1,241.5H27.9c-6.6,0-12-5.4-12-12V68.6h218.3v160.9C234.1,236.1,228.7,241.5,222.1,241.5z"/>
	<g>
		<g>
			<path class="st2" d="M71.9,15.2v29c0,3.7-3,6.7-6.7,6.7c-3.7,0-6.7-3-6.7-6.7v-29c0-3.7,3-6.7,6.7-6.7
				C68.9,8.5,71.9,11.5,71.9,15.2z"/>
		</g>
		<g>
			<path class="st2" d="M191.5,15.2v29c0,3.7-3,6.7-6.7,6.7c-3.7,0-6.7-3-6.7-6.7v-29c0-3.7,3-6.7,6.7-6.7
				C188.5,8.5,191.5,11.5,191.5,15.2z"/>
		</g>
	</g>
	<rect x="40.8" y="86.2" class="st3" width="48.8" height="48.8"/>
	<rect x="100.6" y="86.2" class="st3" width="48.8" height="48.8"/>
	<rect x="160.4" y="86.2" class="st3" width="48.8" height="48.8"/>
	<rect x="40.8" y="160.7" class="st3" width="48.8" height="48.8"/>
	<rect x="100.6" y="160.7" class="st3" width="48.8" height="48.8"/>
	<rect x="160.4" y="160.7" class="st4" width="48.8" height="48.8"/>
	<g>
		<path class="st5" d="M229.9,166l-31.8,31.8l-6,6c-0.8,0.8-1.9,1.2-3,1.2c-1.1,0-2.2-0.4-3-1.2l-6-6l-15.9-15.9
			c-0.8-0.8-1.2-1.9-1.2-3c0-1.1,0.4-2.2,1.2-3l6-6c0.8-0.8,1.9-1.2,3-1.2c1.1,0,2.2,0.4,3,1.2l13,13l28.9-28.9
			c0.8-0.8,1.9-1.2,3-1.2c1.1,0,2.2,0.4,3,1.2l6,6c0.8,0.8,1.2,1.9,1.2,3C231.3,164.1,230.6,165.2,229.9,166z"/>
	</g>
</g>
</svg>
