<?xml version="1.0" encoding="utf-8"?>
<!-- Generator: Adobe Illustrator 21.0.2, SVG Export Plug-In . SVG Version: 6.00 Build 0)  -->
<svg version="1.1" id="Layer_1" xmlns="http://www.w3.org/2000/svg" xmlns:xlink="http://www.w3.org/1999/xlink" x="0px" y="0px"
	 viewBox="0 0 250 250" style="enable-background:new 0 0 250 250;" xml:space="preserve">
<style type="text/css">
	.st0{fill:#F2F4F4;}
	.st1{fill:#00ADEE;}
	.st2{fill:#303030;}
	.st3{fill:#5D9632;}
	.st4{fill:#68688E;}
	.st5{fill:#3D3D3F;}
	.st6{fill:#181819;}
	.st7{fill:#EA7200;}
	.st8{fill:#FCBA30;}
	.st9{fill:#007599;}
</style>
<g>
	<circle class="st0" cx="124.9" cy="150.6" r="74.6"/>
	<path class="st1" d="M125,59c-50.6,0-91.6,41-91.6,91.6s41,91.6,91.6,91.6s91.6-41,91.6-91.6S175.6,59,125,59z M125,222.2
		c-39.4,0-71.5-32.1-71.5-71.5S85.6,79.1,125,79.1s71.5,32.1,71.5,71.5S164.4,222.2,125,222.2z"/>
	<g>
		<g>
			<path class="st2" d="M130.9,103.1h-3.6l-5.8-7.8h-0.1c0.1,1.3,0.1,2.3,0.1,2.9v4.8h-2.5V92.7h3.5l5.8,7.7l0,0
				c-0.1-1.3-0.1-2.3-0.1-2.9v-4.9h2.5L130.9,103.1z"/>
		</g>
		<g>
			<path class="st2" d="M129.6,206.4c0,0.9-0.4,1.6-1.3,2.2c-0.9,0.6-2,0.9-3.6,0.9c-1.4,0-2.6-0.1-3.8-0.6v-2
				c0.9,0.3,1.6,0.6,2.3,0.7c0.6,0.1,1.2,0.1,1.7,0.1c0.6,0,1-0.1,1.4-0.3c0.3-0.1,0.4-0.4,0.4-0.9c0-0.1-0.1-0.4-0.3-0.6
				c-0.1-0.1-0.3-0.3-0.6-0.4c-0.3-0.1-0.9-0.4-1.7-0.7c-0.9-0.3-1.4-0.6-1.9-0.9c-0.4-0.3-0.7-0.6-1-1c-0.3-0.3-0.4-0.7-0.4-1.3
				c0-0.9,0.4-1.6,1.2-2.2c0.7-0.6,1.9-0.7,3.3-0.7c0.7,0,1.3,0,2,0.1c0.7,0.1,1.3,0.3,2,0.6l-0.9,1.7c-0.7-0.3-1.3-0.4-1.7-0.4
				c-0.4-0.1-0.9-0.1-1.3-0.1c-0.6,0-0.9,0.1-1.2,0.3c-0.3,0.1-0.4,0.4-0.4,0.7c0,0.1,0,0.3,0.1,0.4c0.1,0.1,0.3,0.3,0.6,0.4
				c0.3,0.1,0.9,0.4,1.7,0.7c1.3,0.4,2,0.9,2.6,1.4C129.3,205.3,129.6,205.8,129.6,206.4z"/>
		</g>
		<g>
			<path class="st2" d="M77.2,154.1H74l-1.7-5.3c0-0.1-0.1-0.6-0.3-1.2s-0.3-1-0.3-1.2c0,0.3-0.1,0.7-0.3,1.2
				c-0.1,0.6-0.3,1-0.3,1.2l-1.7,5.3h-3.2l-3.3-10.3h2.7l1.7,5.6c0.3,1,0.6,1.9,0.6,2.7c0-0.3,0.1-0.7,0.3-1.3s0.3-1,0.4-1.3
				l1.9-5.8h2.6l1.9,5.8c0.1,0.3,0.1,0.7,0.3,1.2c0.1,0.6,0.3,1,0.3,1.3c0-0.4,0.1-0.9,0.3-1.3c0.1-0.6,0.3-1,0.3-1.3l1.7-5.6h2.7
				L77.2,154.1z"/>
		</g>
		<g>
			<path class="st2" d="M180.9,154h-7.7v-10.3h7.7v1.7h-4.8v2.3h4.5v1.7h-4.5v2.6h4.8V154z"/>
		</g>
	</g>
	<g>
		<g>
			<polygon class="st3" points="98,122.6 115.9,149.3 97.8,177.4 125,159.3 152.5,176.9 134.5,149.6 152.2,122.8 124.4,140.5 			"/>
		</g>
		<g>
			<polygon class="st3" points="125.3,103.8 117.9,141.7 78.8,150.2 117.1,158 125.4,196.3 133.4,157.9 171.2,149.9 132.5,141.5 			
				"/>
			<polygon class="st4" points="125.3,103.8 125.4,142 117.8,141.7 			"/>
			<polygon class="st4" points="125,160.9 125.4,196.3 133.4,157.9 			"/>
		</g>
		<g>
			
				<ellipse transform="matrix(1 -1.415495e-03 1.415495e-03 1 -0.2123 0.1771)" class="st5" cx="125" cy="150.1" rx="10.8" ry="10.8"/>
			
				<ellipse transform="matrix(1 -1.115284e-03 1.115284e-03 1 -0.1673 0.1395)" class="st6" cx="125" cy="150.1" rx="5.8" ry="5.8"/>
		</g>
		<g>
			<path class="st7" d="M117.6,142.1l7.7-37.3l7.9,38.1C133.2,143.1,126.7,136.1,117.6,142.1z"/>
			<path class="st8" d="M116.9,157.3l8.7,38.7l8.1-39.6C133.7,156.6,126,164.8,116.9,157.3z"/>
		</g>
	</g>
	<g>
		<polygon class="st9" points="124.7,50.7 111.6,50.8 114.7,61.4 134.8,61.2 138,50.7 		"/>
		<g>
			<path class="st1" d="M124.9,7.8c-13,0-23.6,10.7-23.6,23.7S112,55,125,55s23.6-10.7,23.6-23.7S137.9,7.8,124.9,7.8z M125,47.9
				c-9.1,0-16.5-7.4-16.6-16.5c0-9.1,7.4-16.5,16.5-16.6c9.1,0,16.5,7.4,16.6,16.5C141.5,40.5,134.1,47.9,125,47.9z"/>
		</g>
	</g>
</g>
</svg>
