<?xml version="1.0" encoding="utf-8"?>
<!-- Generator: Adobe Illustrator 21.0.2, SVG Export Plug-In . SVG Version: 6.00 Build 0)  -->
<svg version="1.1" id="Layer_1" xmlns="http://www.w3.org/2000/svg" xmlns:xlink="http://www.w3.org/1999/xlink" x="0px" y="0px"
	 viewBox="0 0 250 250" style="enable-background:new 0 0 250 250;" xml:space="preserve">
<style type="text/css">
	.st0{fill:#5D9632;}
	.st1{fill:#00ACED;}
	.st2{fill:#EA7200;}
</style>
<g>
	<path class="st0" d="M180.1,116.1c0,0.1-0.1,0.1-0.1,0.2c-1.3,1.5-2.6,2.9-4.1,4.2l-13.7,14L114.6,183l-16.7-16.3
		c0.5-0.5,0.9-1,1.3-1.4c3.1-3.6,5.2-8,6.1-12.6c0.4-1.9,0.6-3.9,0.6-5.8c0-15.9-12.9-28.8-28.8-28.8c-2.2,0-4.3,0.3-6.5,0.7
		c-5.3,1.2-10.2,4-13.9,7.8l-6.1-5.9l-2.9-2.8c-3.6-3.9-6.5-8.6-8.4-13.8c-1.5-4.3-2.4-8.8-2.4-13.6c0-22.3,18.1-40.3,40.3-40.3
		c1.6,0,3.2,0.1,4.8,0.3c2.8,0.3,5.5,0.9,8.1,1.8c10,3.4,18.2,10.5,23,19.8c5.4-10.4,15.1-18.2,26.8-20.9c2.9-0.7,6-1,9.1-1
		c0.7,0,1.4,0,2,0.1c-4.4,5-7,11.6-7,18.8c0,3.3,0.6,6.6,1.7,9.7c1.3,3.7,3.3,7,6,9.8l0,0l0,0l1.9,1.8L180.1,116.1z"/>
	<path class="st1" d="M246.3,68.9c0,1.8-0.2,3.6-0.6,5.4c-0.9,4.4-2.9,8.3-5.6,11.6c-0.8,1-1.7,1.9-2.7,2.7l-9,9.2l-31.2,31.8
		l-15.7-15.4l-26.1-25.6l-1.9-1.8c-2.4-2.6-4.3-5.6-5.5-9c-1-2.8-1.6-5.8-1.6-8.9c0-7.2,2.9-13.8,7.6-18.5
		c4.8-4.9,11.5-7.9,18.8-7.9c1.1,0,2.1,0.1,3.2,0.2c1.8,0.2,3.6,0.6,5.3,1.2c6.5,2.2,11.9,6.9,15.1,13c3.5-6.8,9.9-11.9,17.6-13.7
		c1.9-0.4,3.9-0.7,6-0.7C234.5,42.5,246.3,54.3,246.3,68.9z"/>
	<path class="st2" d="M103.6,146.8c0,1.8-0.2,3.6-0.5,5.4c-0.9,4.4-2.9,8.3-5.6,11.6c-0.4,0.5-0.8,0.9-1.2,1.3c-0.5,0.5-1,1-1.5,1.4
		l-9,9.2l-31.2,31.8l-41.9-40.9l-1.9-1.8c-2.4-2.6-4.3-5.6-5.5-9c-1-2.8-1.6-5.8-1.6-8.9c0-14.6,11.8-26.4,26.5-26.4
		c1.1,0,2.1,0.1,3.1,0.2c1.8,0.2,3.6,0.6,5.3,1.2c6.5,2.2,11.9,6.9,15.1,13c1.3-2.4,2.9-4.6,4.8-6.6c3.4-3.5,7.8-6,12.8-7.1
		c1.9-0.4,3.9-0.7,6-0.7C91.7,120.4,103.6,132.2,103.6,146.8z"/>
</g>
</svg>
