<?xml version="1.0" encoding="utf-8"?>
<!-- Generator: Adobe Illustrator 21.0.2, SVG Export Plug-In . SVG Version: 6.00 Build 0)  -->
<svg version="1.1" id="Layer_1" xmlns="http://www.w3.org/2000/svg" xmlns:xlink="http://www.w3.org/1999/xlink" x="0px" y="0px"
	 viewBox="0 0 191.4 240" style="enable-background:new 0 0 191.4 240;" xml:space="preserve">
<style type="text/css">
	.st0{fill:#EA7200;}
	.st1{fill:#5D9632;}
</style>
<title>Rx</title>
<g>
	<path class="st0" d="M112.9,71.7v-0.3c0-20.2-13.9-32.4-37-32.4H31.1v98.1h21.6v-31.3h16.9l25.9,36.7L108,125l-16.1-22.9
		C104.4,97.5,112.9,87.6,112.9,71.7z M91.1,72.9c0,8.3-6,13.9-16.5,13.9H52.7V58.6h21.5c10.5,0,16.9,4.7,16.9,14V72.9z M127.6,152.3
		l-12.7,17.5l20.2,28.6h25.2L127.6,152.3z M124.3,147.8l-13-18.4l-1.6-2.3l-12.5,17.7l1.6,2.3l12.8,18.2l1.6,2.3l12.7-17.5
		L124.3,147.8z"/>
	<polygon class="st1" points="153.9,111.6 125.9,150 113.3,167.4 88.9,201 57.2,201 97.2,144.7 109.7,127 129.8,98.8 	"/>
</g>
</svg>
