<?xml version="1.0" encoding="utf-8"?>
<!-- Generator: Adobe Illustrator 21.0.2, SVG Export Plug-In . SVG Version: 6.00 Build 0)  -->
<svg version="1.1" id="Layer_1" xmlns="http://www.w3.org/2000/svg" xmlns:xlink="http://www.w3.org/1999/xlink" x="0px" y="0px"
	 viewBox="0 0 250 250" style="enable-background:new 0 0 250 250;" xml:space="preserve">
<style type="text/css">
	.st0{fill:#F9DCAC;}
	.st1{fill:#937032;}
	.st2{fill:#FCBA30;}
	.st3{fill:#00ADEE;}
	.st4{fill:#5D9632;}
	.st5{fill:#FFFFFF;}
	.st6{fill:#EA7200;}
</style>
<g>
	<rect y="244.1" class="st0" width="250" height="5.8"/>
	<g>
		<rect x="97.1" y="47.3" class="st1" width="10.2" height="196.6"/>
		<path class="st2" d="M184.8,127.5c0-45.6-37-82.6-82.6-82.6s-82.6,37-82.6,82.6H184.8z"/>
		<path class="st3" d="M60.9,127.5H19.5c0-45.6,37-82.6,82.6-82.6C102.2,44.9,60.9,59.7,60.9,127.5z"/>
		<path class="st3" d="M143.5,127.5h41.3c0-45.6-37-82.6-82.6-82.6C102.2,44.9,143.5,59.7,143.5,127.5z"/>
		<g>
			<polygon class="st4" points="197.4,254.8 198.7,254.8 198.3,255.4 			"/>
			<polygon class="st4" points="201.4,243.9 179.9,243.9 155.8,228.9 52.7,228.9 52.7,217.6 159.1,217.6 			"/>
		</g>
		<g>
			<polygon class="st4" points="58.4,243.9 47.1,243.9 47.1,225.3 11.8,184.8 20.4,177.4 58.4,221.1 			"/>
		</g>
		<g>
			<g>
				
					<ellipse transform="matrix(0.8947 -0.4466 0.4466 0.8947 -76.9055 120.7895)" class="st5" cx="217.8" cy="223.5" rx="20.4" ry="20.4"/>
			</g>
			<path class="st6" d="M208.7,205.3c-10.1,5-14.2,17.3-9.1,27.3c5,10.1,17.3,14.2,27.3,9.1c0,0-10.6,1.6-18.2-13.7
				C200.8,212.3,208.7,205.3,208.7,205.3z"/>
			<path class="st3" d="M208.7,205.3c10.1-5,22.3-0.9,27.3,9.1c5,10.1,0.9,22.3-9.1,27.3c0,0,7.6-7.5,0-22.8
				C219,203.2,208.7,205.3,208.7,205.3z"/>
		</g>
	</g>
</g>
</svg>
