<svg xmlns="http://www.w3.org/2000/svg" viewBox="0 0 419.5 124"><defs><style>.cls-1{isolation:isolate;}.cls-2,.cls-7{fill:#f3901d;}.cls-2,.cls-3,.cls-4,.cls-5{mix-blend-mode:multiply;}.cls-3{fill:#00aeef;}.cls-4,.cls-6{fill:#5e9732;}.cls-5{fill:#fdbb30;}.cls-8{font-size:8px;fill:#231f20;font-family:HelveticaNeue, Helvetica Neue;}</style></defs><title>FamilyEQ-Logo-svg</title><g class="cls-1"><g id="Layer_1" data-name="Layer 1"><circle class="cls-2" cx="86" cy="59.11" r="27.77"/><circle class="cls-3" cx="30.46" cy="59.11" r="27.77"/><circle class="cls-4" cx="58.23" cy="86.39" r="27.77"/><circle class="cls-5" cx="58.23" cy="30.83" r="27.77"/><path class="cls-6" d="M127.28,53.65c0-2.22-.1-9.34-.1-9.95,0-1-.71-1.46-2.07-1.46h-2.93c-.2,0-.35-.1-.35-.3V40.57c0-.2.15-.3.35-.3s.91.05,2.07.05,2.88.1,5.3.1c.86,0,18.59.05,19.39-.2.15.86,1.67,7.68,2,9,.05.2,0,.3-.1.35l-.91.35c-.15.05-.25-.05-.4-.35-.45-.81-1.77-2.68-3.23-4.65a6.18,6.18,0,0,0-3.54-2.37c-1.26-.3-9.29-.45-10.81-.45,0,.66-.05,10.81-.05,13.89V58.5c.71,0,6-.15,6.62-.25,1.11-.2,1.77-.66,2.22-2.22.15-.5.35-1.57.5-2.47.05-.2.15-.35.35-.35l1,.05c.2,0,.3.15.3.35-.1.86-.1,5.05-.1,5.76,0,1.82.15,4.24.25,5.25,0,.25-.1.35-.35.4l-1,.2c-.25,0-.3-.1-.35-.35-.05-.4-.4-1.92-.56-2.47a2.35,2.35,0,0,0-2.07-2,65.54,65.54,0,0,0-6.87-.3V62c0,1.51.05,10,.05,10.76,0,1.36.25,1.62,2,1.62h2.47c.3,0,.45.1.45.3v1.26c0,.3-.1.4-.4.4-.51,0-2.53-.15-6.87-.15-3.94,0-5.86.15-6.62.15-.2,0-.3-.1-.3-.35V74.61c0-.2.15-.25.35-.25h2.27c1.31,0,1.72-.2,1.77-1.11s.2-7.37.2-16.06Z"/><path class="cls-6" d="M165.88,70.17c0,2.88.61,3.79,1.52,3.79a2.33,2.33,0,0,0,1.77-.76c.2-.25.3-.35.51-.2l.5.4c.15.15.25.4-.05.91a4.17,4.17,0,0,1-3.94,2.47c-1.82,0-3.13-1.31-3.59-3.38h-.1a10.88,10.88,0,0,1-5,3.08,9.5,9.5,0,0,1-3,.3c-1.21,0-3-1-3-4.19,0-2.32,1.06-4.34,5.05-6.11a33.48,33.48,0,0,0,5.71-2.93V60.32a5.87,5.87,0,0,0-.71-2.83,3.84,3.84,0,0,0-3-1.11,5.66,5.66,0,0,0-3.28,1.06c-.71.66-.25,1.41-.25,2.32,0,1.77-.61,2.88-2.68,2.88-.81,0-1.21-.45-1.21-1.62,0-1.62,1.41-3.54,3.48-4.75a11.14,11.14,0,0,1,6.16-1.77,5.18,5.18,0,0,1,4,1.36,4.47,4.47,0,0,1,1.11,3.59V70.17Zm-3.69-5.1c-1.82,1.36-6.77,2.37-6.77,6.57A2.48,2.48,0,0,0,158,74.41c1.46,0,4.14-1.77,4.14-3.13Z"/><path class="cls-6" d="M189.36,63.25c0-3.74-.71-4.7-1.52-5.45a5.43,5.43,0,0,0-3.23-.91,5.87,5.87,0,0,0-4.85,2.93,6,6,0,0,0-.71,3.38v10c0,.81.3,1.31,1,1.31h1.82c.45,0,.5.1.5.46v.81c0,.35-.05.55-.4.55s-1.82-.15-4.6-.15-4.29.15-4.7.15-.4-.1-.4-.46V75c0-.4.1-.46.61-.46h1.72c.45,0,.71-.3.76-1.26s.05-1.77.05-2.63v-9A2.56,2.56,0,0,0,174,59.06l-1.06-.56c-.25-.15-.35-.25-.35-.4v-.4a.63.63,0,0,1,.3-.4L177.34,55a2.49,2.49,0,0,1,1-.3c.3,0,.45.35.45.71l.2,2.93h.15a9.82,9.82,0,0,1,7.42-3.84,6.13,6.13,0,0,1,5.71,3.89h.25a10,10,0,0,1,7.42-3.89A6,6,0,0,1,204.47,56c1.16,1.21,2.42,2.32,2.42,6.21V73.5c0,.76.45,1,1.06,1h1.36c.45,0,.56.1.56.46v.86c0,.35-.1.5-.35.5s-1.77-.15-4.19-.15-4.34.15-4.7.15-.4-.15-.4-.5V75c0-.35.1-.46.66-.46h1.26a.91.91,0,0,0,1-1c.1-1.16.1-3,.1-4.09V62c0-1.67-.3-3.13-1.46-4a6.08,6.08,0,0,0-3.74-1.06,5.69,5.69,0,0,0-4.39,2.63c-.76,1.46-.71,2.83-.71,5.1v8.74c0,.66.25,1.16,1,1.16h1.72c.45,0,.56.1.56.46v.81c0,.4-.1.55-.35.55s-1.67-.15-4.5-.15-4.44.15-4.75.15-.35-.15-.35-.5V75c0-.4.05-.51.5-.51h1.46c.81,0,1.11-.2,1.11-.86Z"/><path class="cls-6" d="M216.34,61.48c0-1.72-.3-2.63-2.83-3-.35-.05-.45-.15-.45-.35v-.45c0-.15.1-.25.35-.35a41.26,41.26,0,0,0,5.45-2.47,2.09,2.09,0,0,1,1-.3c.25,0,.3.25.25.61-.1.86-.1,4-.1,8.23v5.51c0,2,0,3.79.05,4.34.1,1,.25,1.31.81,1.31h2.32c.4,0,.51.15.51.46v.86c0,.35-.1.5-.46.5s-2.73-.15-4.85-.15c-2.93,0-4.9.15-5.46.15-.25,0-.4-.1-.4-.4v-1c0-.3.15-.4.51-.4h2.47c.56,0,.76-.2.81-1,.05-1.52.05-3.08.05-4.6Zm-2.27-17.42a2.8,2.8,0,0,1,3.08-2.63,2.51,2.51,0,0,1,2.63,2.47,2.74,2.74,0,0,1-2.93,2.78A2.87,2.87,0,0,1,214.07,44.06Z"/><path class="cls-6" d="M233.16,61.13c0,2.63,0,10.25.05,11.82.05.86.25,1.57,1.31,1.57h2.27c.46,0,.55.15.55.46v.86c0,.3-.1.5-.3.5-.35,0-2.58-.15-5.71-.15s-5.25.15-5.71.15c-.25,0-.35-.2-.35-.5V75c0-.35.1-.46.66-.46h2.42c.56,0,1.06-.35,1.11-1.26.05-1.57.05-10.25.05-13.18V56.89c0-3.59-.05-8.18-.15-9.5a3,3,0,0,0-2.53-3l-1-.35c-.25-.1-.3-.15-.3-.25v-.4c0-.15.15-.25.45-.35a45.76,45.76,0,0,0,5.91-2.93,1.87,1.87,0,0,1,1.06-.4c.35,0,.45.25.4.91-.05,2.78-.2,13.28-.2,16.06Z"/><path class="cls-6" d="M238.16,87.34a2.23,2.23,0,0,1,2.32-2,8.73,8.73,0,0,1,2.32.55,1.21,1.21,0,0,0,1.06-.3c.76-.91,3.33-6.67,4-8.64-.25-1.26-5.61-17-6-18.08-.61-1.26-1.06-2.12-2.37-2.12h-1.31c-.35,0-.4-.15-.4-.45v-1c0-.2.05-.35.4-.35s1.67.15,4.65.15c2.58,0,4.14-.15,4.7-.15.4,0,.45.15.45.35v1.06c0,.25,0,.4-.3.4h-1c-.55,0-.76.35-.66,1.11.15,1.11,3.59,12.22,4.14,13.33h.2c.5-.81,4.9-11.26,5.2-12.52s-.1-1.92-.86-1.92H254c-.3,0-.35-.15-.35-.4v-1c0-.25.05-.4.3-.4.66,0,1.72.15,4.14.15,1.37,0,2.53-.15,3.08-.15.3,0,.3.2.3.4v1c0,.3,0,.45-.25.45h-.81a2.27,2.27,0,0,0-1.77.91c-1.11,1.36-4.45,9-7.93,17-2.47,5.61-4.45,10.3-5.35,12-.71,1.31-1.62,3.28-4.29,3.28C239.12,89.92,238.16,88.86,238.16,87.34Z"/><path class="cls-7" d="M277.3,56.83c.4,0,5.81-.2,6.41-.3,1.46-.25,1.87-.66,2.32-2.22a11.93,11.93,0,0,0,.4-2.48.32.32,0,0,1,.35-.35l1.26.05a.3.3,0,0,1,.3.4c-.15.86-.15,5-.15,5.76,0,1.77.2,4.19.3,5.25a.35.35,0,0,1-.3.4l-1.11.15c-.25.05-.35-.1-.4-.45-.1-.66-.4-1.82-.56-2.37a2.37,2.37,0,0,0-2.17-2c-2.37-.25-5.86-.25-6.67-.25v3.13c0,2.73.1,7.63.1,8.64.05,2.63,1.31,3.64,2.88,3.94a20.9,20.9,0,0,0,3.74.35c.86,0,3.38-.05,4.45-.15a9.73,9.73,0,0,0,4.39-1.77,46.17,46.17,0,0,0,4.14-5.3c.15-.25.3-.45.61-.3l.81.46c.25.15.25.3.1.71l-2.68,7.42a1.07,1.07,0,0,1-1.11.76c-.5,0-4.49-.15-20.2-.15-3.79,0-5.56.15-6.46.15-.3,0-.45-.1-.45-.35V74.61c0-.2.15-.25.5-.25h2c2.32,0,2.53-.35,2.53-2.22V55.22c0-4.19-.1-10.51-.15-11-.2-1.62-.71-2-2.58-2h-1.82c-.25,0-.4-.05-.4-.35V40.52c0-.15.1-.25.36-.25,1.11,0,2.88.15,6.21.15h2.22c5,0,10-.05,15-.05.81,0,1.77-.1,2-.1s.35.1.4.25c.2.71,2.42,7.63,2.57,8.13.05.2.05.35-.15.45l-.76.4c-.15.1-.35-.05-.4-.15s-3.84-5-5.05-5.76a7.81,7.81,0,0,0-3.84-1.36l-9-.2Z"/><path class="cls-7" d="M334,45.07a17.63,17.63,0,0,1,4.85,12.73,18.51,18.51,0,0,1-5.2,13.28,20.77,20.77,0,0,1-8.79,5.45v.2a92.32,92.32,0,0,0,12.93,3.69c12.78,2.88,14.75,2.32,15.71,2.32a5.3,5.3,0,0,0,3.13-1.11c.15-.15.3-.25.46,0l.35.5c.1.15.05.35-.15.51-.66.66-3.94,4.09-6.77,4.09-1.51,0-4.65-.1-13.48-2.37a117.65,117.65,0,0,1-19.39-7.22A20.23,20.23,0,0,1,307.46,71c-2.73-2.78-4.9-7.27-4.9-13.33a18.19,18.19,0,0,1,5.81-13.18,19.47,19.47,0,0,1,12.07-4.85A17.79,17.79,0,0,1,334,45.07Zm-.2,14.29c0-6.06-1.67-11.06-4.34-13.59-3.08-2.93-5.66-4.29-9.34-4.29a10.72,10.72,0,0,0-8.08,3.28c-3.33,3.33-4.39,8.33-4.39,12.53a19.68,19.68,0,0,0,5.4,14c3.84,3.64,6.41,4,7.83,4C331.1,75.32,333.82,63.65,333.82,59.36Z"/><path class="cls-4" d="M124.71,98.81c.48-1.49-.56-1.88-1.46-1.88h-.85c-.16,0-.21-.08-.16-.29l.13-.5c.05-.16.13-.19.32-.19s.45,0,1,0,1.38.05,2.65.05h1.7c2,0,3.53,0,4.62-.05s1.75,0,2,0,.45.08.56.5l.85,3.64c0,.13,0,.16-.16.24l-.29.11c-.13.05-.16.05-.27-.08l-2.49-3.21a.45.45,0,0,0-.42-.21h-4.83l-2.28,7h2.55c1.54,0,2.41-.05,3.16-2.23,0-.11.08-.16.19-.13l.4.08c.11,0,.19.08.16.21l-1.43,5.28c0,.16-.08.19-.19.16l-.42-.05c-.13,0-.13-.05-.11-.21.19-2.2-.88-2.26-3-2.26h-1.59l-2.57,8.15h6.87a2.52,2.52,0,0,0,2.12-1.12l2.12-2.68a.2.2,0,0,1,.32-.05l.27.16c.11.08.16.13.08.37L133,113.43c-.13.4-.27.45-.58.45l-2.95-.05-5.36,0H121c-1.22,0-2,0-2.49,0l-.8.05c-.19,0-.27-.05-.21-.21l.08-.56c.05-.16.08-.21.21-.21h1a1.83,1.83,0,0,0,1.91-1.49Z"/><path class="cls-4" d="M142.7,112.66h-.11a4.67,4.67,0,0,1-3.32,1.41c-.8,0-2.6-.19-2.6-3.05a10.33,10.33,0,0,1,3.16-6.77,4.81,4.81,0,0,1,3.4-1.49,3.36,3.36,0,0,1,2.34,1,.32.32,0,0,0,.37,0l1.35-.87a.85.85,0,0,1,.45-.16c.21,0,.24.13.11.48l-6.08,16.35c-.37,1-.11,1.35.45,1.35H143c.16,0,.21.08.19.21l-.16.48a.27.27,0,0,1-.29.21c-.32,0-1.17-.08-2.6-.08s-2.44.08-2.73.08-.24-.08-.21-.21l.11-.48c.05-.16.11-.21.24-.21h.66c1,0,1.43-.24,1.88-1.38Zm2.36-7.35a1.44,1.44,0,0,0-1.43-1.54,3,3,0,0,0-2.12,1.09,11.69,11.69,0,0,0-3.21,6.85c0,1,.45,1.67,1.25,1.67C143,113.38,145.06,106.48,145.06,105.31Z"/><path class="cls-4" d="M160,103c.24,0,.29.08.24.24l-2,5.52a24.91,24.91,0,0,0-1.11,3.45c0,.24,0,.24.21.32a6.45,6.45,0,0,0,2.07-1.64.14.14,0,0,1,.24,0l.27.27c.08.08.08.13,0,.24s-2.55,2.65-4.38,2.65c-.37,0-.5-.29-.5-.61s1.35-3.63,1.7-4.54l-.16-.08c-1.11,1.62-3.93,5.23-6.55,5.23a1,1,0,0,1-1-1.09c0-.85.85-2.49,1.88-5a18,18,0,0,0,1.3-3.37.38.38,0,0,0-.42-.37c-.48,0-1.8,1.19-2.07,1.51a.15.15,0,0,1-.24,0l-.24-.24c-.08-.05-.08-.13,0-.24s2.39-2.55,4.09-2.55c.53,0,.77.53.77,1,0,.66-.64,2.23-1.73,4.59a16,16,0,0,0-1.41,3.85.42.42,0,0,0,.45.45c1.41,0,4.22-3.48,5-4.59a10.36,10.36,0,0,0,1.22-2.26l.93-2.55c.05-.16.19-.19.37-.19Z"/><path class="cls-4" d="M162.2,113.41c0-.61.48-1.83,1.57-4.8l.77-2.07A6.23,6.23,0,0,0,165,105a.33.33,0,0,0-.37-.35c-.45,0-1.7,1.43-2.12,1.86-.11.11-.21.11-.29,0l-.21-.24c-.11-.08-.16-.13-.08-.24s2.81-3.34,4.51-3.26a.62.62,0,0,1,.64.66,13.52,13.52,0,0,1-.9,2.95l-1.54,4a7.81,7.81,0,0,0-.48,1.75c0,.24.08.4.29.45a7,7,0,0,0,2.12-1.86c.05-.08.16-.08.29.05l.21.19c.11.13.13.19.05.32s-2.28,2.76-4.48,2.76C162.38,114,162.2,113.83,162.2,113.41Zm3.45-16.53A1.33,1.33,0,0,1,167,95.55a1.31,1.31,0,0,1,1.41,1.27A1.36,1.36,0,0,1,167,98.15,1.3,1.3,0,0,1,165.65,96.88Z"/><path class="cls-4" d="M174.16,100.75a.54.54,0,0,1,.35-.37l1.64-.58a.46.46,0,0,1,.19,0c.05,0,.08.05.08.11a.36.36,0,0,1-.05.21l-1.22,2.76a3.18,3.18,0,0,1,.53-.05,4,4,0,0,1,.53,0,3.43,3.43,0,0,1,3.66,3.53c0,1.86-.82,3.77-3.16,5.52a12.6,12.6,0,0,1-5.52,2l-1.88,5.25c-.48,1.43-.27,1.8.85,1.8h.74a.18.18,0,0,1,.19.21l-.19.53a.31.31,0,0,1-.32.16c-.29,0-1.09-.08-2.79-.08s-2.55.08-2.84.08-.21-.05-.19-.16l.16-.53c0-.11.05-.21.19-.21h.61c1,0,1.46-.61,2-2.15l5.2-14.3a8,8,0,0,0-3.29,2.39.15.15,0,0,1-.24,0l-.29-.27c-.08-.08-.11-.16,0-.24a9.84,9.84,0,0,1,4.22-3.1ZM171.51,113c3.18-.5,6.5-2.84,6.5-6.1,0-2-1.22-3.05-2.39-3.05a5,5,0,0,0-.85.08Z"/><path class="cls-4" d="M186.39,100.75a.54.54,0,0,1,.35-.37l1.64-.58a.46.46,0,0,1,.19,0c.05,0,.08.05.08.11a.36.36,0,0,1-.05.21l-1.22,2.76a3.18,3.18,0,0,1,.53-.05,4,4,0,0,1,.53,0,3.43,3.43,0,0,1,3.66,3.53c0,1.86-.82,3.77-3.16,5.52a12.6,12.6,0,0,1-5.52,2l-1.88,5.25c-.48,1.43-.27,1.8.85,1.8h.74a.18.18,0,0,1,.19.21l-.19.53a.31.31,0,0,1-.32.16c-.29,0-1.09-.08-2.79-.08s-2.55.08-2.84.08-.21-.05-.19-.16l.16-.53c0-.11.05-.21.19-.21H178c1,0,1.46-.61,2-2.15l5.2-14.3a8,8,0,0,0-3.29,2.39.15.15,0,0,1-.24,0l-.29-.27c-.08-.08-.11-.16,0-.24a9.84,9.84,0,0,1,4.22-3.1ZM183.74,113c3.18-.5,6.5-2.84,6.5-6.1,0-2-1.22-3.05-2.39-3.05a5,5,0,0,0-.85.08Z"/><path class="cls-4" d="M194.27,113.41c0-.61.48-1.83,1.57-4.8l.77-2.07a6.23,6.23,0,0,0,.48-1.56.33.33,0,0,0-.37-.35c-.45,0-1.7,1.43-2.12,1.86-.11.11-.21.11-.29,0l-.21-.24c-.11-.08-.16-.13-.08-.24s2.81-3.34,4.51-3.26a.62.62,0,0,1,.64.66,13.53,13.53,0,0,1-.9,2.95l-1.54,4a7.81,7.81,0,0,0-.48,1.75c0,.24.08.4.29.45a7,7,0,0,0,2.12-1.86c.05-.08.16-.08.29.05l.21.19c.11.13.13.19.05.32s-2.28,2.76-4.48,2.76C194.46,114,194.27,113.83,194.27,113.41Zm3.45-16.53a1.33,1.33,0,0,1,1.38-1.33,1.31,1.31,0,0,1,1.41,1.27,1.36,1.36,0,0,1-1.41,1.33A1.3,1.3,0,0,1,197.72,96.88Z"/><path class="cls-4" d="M201.81,113.8c-.29,0-.35-.05-.29-.24l1.88-4.91a26.47,26.47,0,0,0,1.38-4c0-.26-.11-.45-.4-.45-.5,0-1.78,1.27-2.23,1.78-.08.08-.16.08-.27,0l-.24-.24c-.11-.11-.13-.16-.05-.27.4-.48,2.36-2.68,4.27-2.68a.79.79,0,0,1,.85.8,21.61,21.61,0,0,1-1.35,4l.11.05c.8-1.27,3.69-4.8,6.05-4.8.8,0,1.33.4,1.33,1.09,0,1.17-.61,2.55-1.49,4.7a22,22,0,0,0-1.35,3.66.33.33,0,0,0,.32.34,5.52,5.52,0,0,0,1.91-1.35.19.19,0,0,1,.29.05l.19.21c.11.11.13.16,0,.29-.32.42-2.47,2.31-4.25,2.31-.34,0-.64-.13-.64-.53a50.36,50.36,0,0,1,1.78-4.88,26.66,26.66,0,0,0,1.33-3.82c0-.37-.19-.61-.66-.61-1,0-3.66,2.44-4.83,4.33a15.44,15.44,0,0,0-1.59,3.32l-.66,1.78c-.05.11-.11.16-.37.16Z"/><path class="cls-4" d="M212.29,118.21c0-2,3.18-3.26,4.48-3.82-.77-.56-1-1-1-1.54s.48-1,2.26-2a3.09,3.09,0,0,1-2.07-3.05c0-2,1.75-5.07,4.7-5.07A2.59,2.59,0,0,1,222.9,104a3.73,3.73,0,0,1,2.25-1,1.06,1.06,0,0,1,1.12,1,.81.81,0,0,1-.85.82,1,1,0,0,1-.87-.4.74.74,0,0,0-.5-.19,1.12,1.12,0,0,0-.77.37,6.1,6.1,0,0,1,.21,1.49c0,1.27-.74,4.25-3.79,4.78a3,3,0,0,0-.8.19c-.5.21-1.38.82-1.38,1.27a1,1,0,0,0,.45.72c.45.32,1.72,1.11,3.45,2.25,1.54,1,2,1.88,2,2.87,0,.42-.45,3.45-5.65,3.45C215,121.69,212.29,120.12,212.29,118.21Zm6,2.65c1.8,0,3.32-.64,3.32-2.12,0-1.17-1.11-1.88-1.78-2.34l-2.33-1.51c-2.18.88-3.34,1.88-3.34,3.13C214.12,119.85,216.48,120.86,218.26,120.86Zm3.53-15.66c0-1.22-.48-1.78-1.19-1.78-1.59,0-2.95,3.1-2.95,5.09,0,1.19.45,1.8,1.25,1.8C220.83,110.33,221.79,107.12,221.79,105.21Z"/><path class="cls-4" d="M233,104.46c-.13,0-.19-.08-.13-.26l.11-.45c.05-.19.11-.27.32-.27h2.31a17.84,17.84,0,0,1,3.1-6.05,5.45,5.45,0,0,1,3.93-1.8c1.54,0,2.39.93,2.39,1.57A1.09,1.09,0,0,1,244,98.41a1,1,0,0,1-1.17-1.06c0-.27-.29-.77-1.09-.77-2.47,0-3.42,3.93-4.3,6.9H240c.16,0,.21.08.16.32l-.13.48c0,.16-.08.19-.29.19h-2.52c-.69,2.15-1.91,6.74-3.24,10.14-1.62,4.14-3.5,7.09-6.34,7.09a1.77,1.77,0,0,1-1.91-1.57,1.12,1.12,0,0,1,1.14-1.14,1.38,1.38,0,0,1,1.25,1.19.5.5,0,0,0,.45.45c1.27,0,2.71-2.23,4.14-7.14l2.68-9Z"/><path class="cls-4" d="M250.71,102.77c.11,0,.13.13.08.24-.51,1.09-1.86,4.75-2,5.17s-1.27,3.74-1.27,4,.13.32.29.32c.32,0,1.67-1.38,1.86-1.62.08-.08.16-.13.21-.05l.24.27c.08.08.11.13.05.21-.29.53-2.6,2.79-4.11,2.79-.32,0-.56-.11-.56-.45a20.11,20.11,0,0,1,1.27-4l-.13-.05c-1.11,1.7-3.79,4.54-5.68,4.54a1.53,1.53,0,0,1-1.43-1.7c0-3.87,4.35-9.61,7.59-9.61a2,2,0,0,1,1.88.9l.5-.72c.08-.11.16-.19.27-.19Zm-3.34,4.62a5,5,0,0,0,.64-2.2c0-.72-.27-1.56-1.25-1.56-2.44,0-5.28,5.6-5.28,8.12,0,.61.27.93.72.93C243.52,112.66,246.88,108.37,247.36,107.38Z"/><path class="cls-4" d="M252.38,113.8c-.13,0-.24-.05-.16-.27l2-4.8a35.55,35.55,0,0,0,1.54-4c0-.27-.08-.42-.27-.42-.37,0-2,1.57-2.23,1.88-.08.11-.21.08-.32,0l-.24-.24c-.08-.08-.11-.16,0-.24.61-.72,2.68-2.95,4.35-2.95a.68.68,0,0,1,.64.74,41.37,41.37,0,0,1-1.88,4.86l.13,0c1.22-1.88,4-5.62,6.21-5.62a1.1,1.1,0,0,1,1.17,1.14,19.34,19.34,0,0,1-1.51,4.59l.13,0c1.46-2.23,3.85-5.76,6.1-5.76A1.27,1.27,0,0,1,269.3,104c0,.9-.5,2-1.62,4.72a15,15,0,0,0-1.12,3.1c0,.19.08.34.29.34.48,0,1.94-1.7,2.1-1.91s.21-.11.32,0l.21.21a.24.24,0,0,1,.05.29c-.08.19-2.87,3.26-4.59,3.26-.26,0-.48-.24-.48-.64,0-.66.74-2.44,1.8-5a13.39,13.39,0,0,0,1.27-3.77.49.49,0,0,0-.56-.5c-.9,0-3.5,2.95-5.12,5.31a8.39,8.39,0,0,0-1.09,1.88l-.9,2.33c-.05.13-.16.16-.37.16h-1.06c-.21,0-.32-.05-.24-.21l1.8-4.4a20.49,20.49,0,0,0,1.54-4.46.49.49,0,0,0-.53-.53c-.9,0-3.42,2.71-4.94,4.83a11.26,11.26,0,0,0-1.33,2.26l-1,2.36c-.11.16-.19.16-.42.16Z"/><path class="cls-4" d="M272.09,113.41c0-.61.48-1.83,1.56-4.8l.77-2.07a6.22,6.22,0,0,0,.48-1.56.33.33,0,0,0-.37-.35c-.45,0-1.7,1.43-2.12,1.86-.11.11-.21.11-.29,0l-.21-.24c-.11-.08-.16-.13-.08-.24s2.81-3.34,4.51-3.26a.62.62,0,0,1,.64.66,13.61,13.61,0,0,1-.9,2.95l-1.54,4a7.78,7.78,0,0,0-.48,1.75c0,.24.08.4.29.45a7,7,0,0,0,2.12-1.86c.05-.08.16-.08.29.05l.21.19c.11.13.13.19.05.32s-2.28,2.76-4.48,2.76C272.28,114,272.09,113.83,272.09,113.41Zm3.45-16.53a1.33,1.33,0,0,1,1.38-1.33,1.31,1.31,0,0,1,1.41,1.27,1.36,1.36,0,0,1-1.41,1.33A1.3,1.3,0,0,1,275.54,96.88Z"/><path class="cls-4" d="M284.27,98.47c.4-1,.37-1.67-.4-1.67h-.77c-.19,0-.21-.11-.16-.24l.16-.48c.05-.16.11-.19.27-.19h3.29c.24,0,.32.16.24.4l-5.52,14c-.24.61-.87,2.07-.32,2.07s1.64-1,2-1.38c.11-.11.16-.08.24,0l.29.32a.18.18,0,0,1,0,.27c-.13.21-2.6,2.47-4.3,2.47-.35,0-.58-.16-.58-.77a17.57,17.57,0,0,1,1-2.87Z"/><path class="cls-4" d="M286.44,113.41c0-.61.48-1.83,1.56-4.8l.77-2.07a6.22,6.22,0,0,0,.48-1.56.33.33,0,0,0-.37-.35c-.45,0-1.7,1.43-2.12,1.86-.11.11-.21.11-.29,0l-.21-.24c-.11-.08-.16-.13-.08-.24s2.81-3.34,4.51-3.26a.62.62,0,0,1,.64.66,13.61,13.61,0,0,1-.9,2.95l-1.54,4a7.78,7.78,0,0,0-.48,1.75c0,.24.08.4.29.45a7,7,0,0,0,2.12-1.86c.05-.08.16-.08.29.05l.21.19c.11.13.13.19.05.32s-2.28,2.76-4.48,2.76C286.63,114,286.44,113.83,286.44,113.41Zm3.45-16.53a1.33,1.33,0,0,1,1.38-1.33,1.31,1.31,0,0,1,1.41,1.27,1.36,1.36,0,0,1-1.41,1.33A1.3,1.3,0,0,1,289.89,96.88Z"/><path class="cls-4" d="M293.23,111.47c0-2.23,1.46-5,3.4-6.93a5.73,5.73,0,0,1,3.56-1.78,1.42,1.42,0,0,1,1.51,1.41,4.22,4.22,0,0,1-2.47,3.45,10.8,10.8,0,0,1-3.85,1.09,7.29,7.29,0,0,0-.34,2.44,1.54,1.54,0,0,0,1.38,1.67,3.87,3.87,0,0,0,3-1.88c.05-.08.13-.13.24,0l.29.24c.13.08.13.16,0,.24-.66.93-2.25,2.68-4.3,2.68C294,114.07,293.23,113.22,293.23,111.47Zm2.36-3.53c.93.08,4.4-1,4.4-3,0-.53-.26-1-.85-1C297.45,103.93,295.81,107,295.6,107.94Z"/><path class="cls-4" d="M301.64,112.58a.92.92,0,0,1,.9-.88,1.14,1.14,0,0,1,1.09.85c.16.45.29.74,1,.74a1.57,1.57,0,0,0,1.49-1.62c0-1.14-.8-2.23-1.14-3.08a5.71,5.71,0,0,1-.77-2.6,3.44,3.44,0,0,1,3.34-3.24c.8,0,1.88.32,1.88,1.35a.87.87,0,0,1-.82.85,1,1,0,0,1-.9-.64c-.13-.32-.16-.74-.69-.74a1.65,1.65,0,0,0-1.3,1.67,6.25,6.25,0,0,0,1,2.47,6.59,6.59,0,0,1,1,3,3.33,3.33,0,0,1-3.5,3.32C302.6,114.07,301.64,113.46,301.64,112.58Z"/><path class="cls-4" d="M320,104.46h-1.86c-.16,0-.21-.05-.16-.21l.21-.58a.27.27,0,0,1,.29-.19h1.91l1.38-3.08a.63.63,0,0,1,.42-.4,10.28,10.28,0,0,0,1.2-.45,1.1,1.1,0,0,1,.4-.16c.16,0,.21.16,0,.53L322,103.48h2.71c.13,0,.19.08.11.29l-.24.56a.25.25,0,0,1-.24.13h-2.71l-2.57,6a7.05,7.05,0,0,0-.61,1.7c0,.29.11.45.34.45.77,0,2.5-1.51,2.65-1.7s.16-.08.24,0l.29.32c.08.08.08.13,0,.24-.34.42-2.81,2.63-4.86,2.63-.66,0-.85-.26-.85-.64a3.54,3.54,0,0,1,.29-1.25Z"/><path class="cls-4" d="M324.94,110.65c0-3.34,2.52-7.88,6-7.88a2.81,2.81,0,0,1,2.84,3.1c0,2.92-2.31,8.2-6.16,8.2C326.21,114.07,324.94,112.66,324.94,110.65Zm7.83-5.17a1.31,1.31,0,0,0-1.33-1.49c-1.11,0-2.52,1-3.85,3.16a8.92,8.92,0,0,0-1.54,4.3,1.25,1.25,0,0,0,1.22,1.35C330,112.8,332.77,107.22,332.77,105.47Z"/><path class="cls-4" d="M342,104.46c-.13,0-.19-.08-.13-.26l.11-.45c.05-.19.11-.27.32-.27h2.31a17.84,17.84,0,0,1,3.1-6.05,5.45,5.45,0,0,1,3.93-1.8c1.54,0,2.39.93,2.39,1.57A1.09,1.09,0,0,1,353,98.41a1,1,0,0,1-1.17-1.06c0-.27-.29-.77-1.09-.77-2.47,0-3.42,3.93-4.3,6.9H349c.16,0,.21.08.16.32l-.13.48c0,.16-.08.19-.29.19h-2.52c-.69,2.15-1.91,6.74-3.24,10.14-1.62,4.14-3.5,7.09-6.34,7.09a1.77,1.77,0,0,1-1.91-1.57,1.12,1.12,0,0,1,1.14-1.14,1.38,1.38,0,0,1,1.25,1.19.5.5,0,0,0,.45.45c1.27,0,2.71-2.23,4.14-7.14l2.68-9Z"/><path class="cls-4" d="M356.15,98.47c.4-1,.37-1.67-.4-1.67H355c-.19,0-.21-.11-.16-.24l.16-.48c.05-.16.11-.19.27-.19h3.29c.24,0,.32.16.24.4l-5.52,14c-.24.61-.87,2.07-.32,2.07s1.64-1,2-1.38c.11-.11.16-.08.24,0l.29.32a.18.18,0,0,1,0,.27c-.13.21-2.6,2.47-4.3,2.47-.35,0-.58-.16-.58-.77a17.58,17.58,0,0,1,1-2.87Z"/><path class="cls-4" d="M357.72,110.65c0-3.34,2.52-7.88,6.05-7.88a2.81,2.81,0,0,1,2.84,3.1c0,2.92-2.31,8.2-6.16,8.2C359,114.07,357.72,112.66,357.72,110.65Zm7.83-5.17a1.31,1.31,0,0,0-1.33-1.49c-1.12,0-2.52,1-3.85,3.16a8.92,8.92,0,0,0-1.54,4.3,1.25,1.25,0,0,0,1.22,1.35C362.81,112.8,365.54,107.22,365.54,105.47Z"/><path class="cls-4" d="M379.47,103c.24,0,.29.08.24.24l-2,5.52a25,25,0,0,0-1.12,3.45c0,.24,0,.24.21.32a6.46,6.46,0,0,0,2.07-1.64.14.14,0,0,1,.24,0l.27.27c.08.08.08.13,0,.24s-2.55,2.65-4.38,2.65c-.37,0-.5-.29-.5-.61s1.35-3.63,1.7-4.54l-.16-.08c-1.12,1.62-3.93,5.23-6.55,5.23a1,1,0,0,1-1-1.09c0-.85.85-2.49,1.88-5a18,18,0,0,0,1.3-3.37.38.38,0,0,0-.43-.37c-.48,0-1.8,1.19-2.07,1.51a.15.15,0,0,1-.24,0l-.24-.24c-.08-.05-.08-.13,0-.24s2.39-2.55,4.09-2.55c.53,0,.77.53.77,1,0,.66-.64,2.23-1.72,4.59a15.94,15.94,0,0,0-1.41,3.85.42.42,0,0,0,.45.45c1.41,0,4.22-3.48,5-4.59a10.42,10.42,0,0,0,1.22-2.26l.93-2.55c.05-.16.19-.19.37-.19Z"/><path class="cls-4" d="M381.49,113.8c-.19,0-.29-.11-.24-.24l1.49-4.3a46.72,46.72,0,0,0,1.3-4.64.42.42,0,0,0-.45-.4c-.53,0-1.72,1.19-2.1,1.65a.14.14,0,0,1-.21,0l-.27-.26a.16.16,0,0,1,0-.21c.56-.82,2.15-2.63,4-2.63.53,0,.74.45.74.93a20.89,20.89,0,0,1-1,3.77l.13.05c.71-1.49,2.84-4.75,4.32-4.75a1.14,1.14,0,0,1,1.25,1.19,1.18,1.18,0,0,1-1,1.22.86.86,0,0,1-.66-.26.82.82,0,0,0-.69-.32c-.72,0-2.2,2.28-3.26,4a9.84,9.84,0,0,0-1,2.31l-.87,2.68c-.05.19-.13.19-.35.19Z"/><path class="cls-4" d="M391.41,113.41c0-.61.48-1.83,1.56-4.8l.77-2.07a6.22,6.22,0,0,0,.48-1.56.33.33,0,0,0-.37-.35c-.45,0-1.7,1.43-2.12,1.86-.11.11-.21.11-.29,0l-.21-.24c-.11-.08-.16-.13-.08-.24s2.81-3.34,4.51-3.26a.62.62,0,0,1,.64.66,13.61,13.61,0,0,1-.9,2.95l-1.54,4a7.78,7.78,0,0,0-.48,1.75c0,.24.08.4.29.45a7,7,0,0,0,2.12-1.86c.05-.08.16-.08.29.05l.21.19c.11.13.13.19.05.32s-2.28,2.76-4.48,2.76C391.59,114,391.41,113.83,391.41,113.41Zm3.45-16.53a1.33,1.33,0,0,1,1.38-1.33,1.31,1.31,0,0,1,1.41,1.27,1.36,1.36,0,0,1-1.41,1.33A1.3,1.3,0,0,1,394.86,96.88Z"/><path class="cls-4" d="M397.35,112.58a.92.92,0,0,1,.9-.88,1.14,1.14,0,0,1,1.09.85c.16.45.29.74,1,.74a1.57,1.57,0,0,0,1.49-1.62c0-1.14-.79-2.23-1.14-3.08a5.68,5.68,0,0,1-.77-2.6,3.44,3.44,0,0,1,3.34-3.24c.79,0,1.88.32,1.88,1.35a.87.87,0,0,1-.82.85,1,1,0,0,1-.9-.64c-.13-.32-.16-.74-.69-.74a1.65,1.65,0,0,0-1.3,1.67,6.28,6.28,0,0,0,1,2.47,6.57,6.57,0,0,1,1,3,3.33,3.33,0,0,1-3.5,3.32C398.3,114.07,397.35,113.46,397.35,112.58Z"/><path class="cls-4" d="M405.65,113.8c-.16,0-.21-.08-.19-.13l6.08-15a3.37,3.37,0,0,0,.35-1.3c0-.32-.37-.53-.88-.53h-.82c-.16,0-.29-.08-.24-.24l.13-.45c.05-.13.08-.21.29-.21H414c.21,0,.32.08.32.32a3,3,0,0,1-.24.8l-4.17,9.76.13.11c1.33-1.88,3.08-4.11,5.25-4.11,1.22,0,1.83,1,1.83,2.23a13.77,13.77,0,0,1-1.83,6.16c-1.06,2-2.49,3.5-4,3.5a1.28,1.28,0,0,1-1.35-1.14c0-.61.4-1.3,1-1.3a1,1,0,0,1,.93.8c0,.24.16.53.45.53.58,0,1.46-1.72,2-3.08a15.61,15.61,0,0,0,1.06-4.8c0-.66-.05-1.49-.8-1.49-1.41,0-3.74,2.76-4.46,3.66a12.74,12.74,0,0,0-1.75,3.08l-1.12,2.71c-.05.16-.19.19-.37.19Z"/><text class="cls-8" transform="translate(336 43.5)">TM</text></g></g></svg>